<svg fill="none" height="16" viewBox="0 0 16 16" width="16" xmlns="http://www.w3.org/2000/svg">
    <rect style="mix-blend-mode:multiply" fill="white" fill-opacity="0.01" height="16" width="16" />
    <path
        d="M6 4.99888H3.39C4.03668 4.00504 4.98721 3.2468 6.09991 2.83717C7.21262 2.42754 8.4279 2.38847 9.56462 2.72577C10.7013 3.06308 11.6986 3.7587 12.4078 4.70894C13.117 5.65919 13.5001 6.81317 13.5 7.99888H14.5C14.5014 6.66162 14.0903 5.35649 13.3227 4.26143C12.5552 3.16638 11.4686 2.33471 10.2111 1.87982C8.95358 1.42492 7.58637 1.36896 6.29589 1.71955C5.00541 2.07014 3.85447 2.81022 3 3.83888V1.99888H2V5.99888H6V4.99888Z"
        fill="#161616" />
    <path
        d="M10 10.9989H12.61C11.9633 11.9927 11.0128 12.751 9.90009 13.1606C8.78739 13.5702 7.5721 13.6093 6.43539 13.272C5.29867 12.9347 4.30139 12.2391 3.59221 11.2888C2.88303 10.3386 2.49993 9.18459 2.5 7.99888H1.5C1.49863 9.33614 1.90973 10.6413 2.67727 11.7363C3.4448 12.8314 4.53141 13.6631 5.78892 14.1179C7.04642 14.5728 8.41363 14.6288 9.70411 14.2782C10.9946 13.9276 12.1455 13.1875 13 12.1589V13.9989H14V9.99888H10V10.9989Z"
        fill="#161616" />
</svg>
