<svg fill="none" height="16" viewBox="0 0 16 16" width="16" xmlns="http://www.w3.org/2000/svg">
    <rect style="mix-blend-mode:multiply" fill="white" fill-opacity="0.01" height="16" width="16" />
    <path
        d="M14.5 13.7911L10.7239 10.0151C11.6313 8.92575 12.0838 7.52855 11.9872 6.11412C11.8907 4.6997 11.2525 3.37695 10.2055 2.42105C9.15855 1.46515 7.78335 0.949684 6.366 0.981892C4.94865 1.0141 3.59828 1.5915 2.59581 2.59398C1.59333 3.59645 1.01593 4.94682 0.983723 6.36417C0.951515 7.78152 1.46698 9.15672 2.42288 10.2037C3.37879 11.2507 4.70153 11.8888 6.11596 11.9854C7.53038 12.0819 8.92758 11.6295 10.0169 10.7221L13.7929 14.4982L14.5 13.7911ZM2 6.49817C2 5.60815 2.26392 4.73812 2.75838 3.9981C3.25285 3.25808 3.95565 2.6813 4.77792 2.34071C5.60019 2.00011 6.50499 1.911 7.3779 2.08463C8.25082 2.25826 9.05264 2.68685 9.68198 3.31618C10.3113 3.94552 10.7399 4.74734 10.9135 5.62026C11.0872 6.49317 10.998 7.39797 10.6575 8.22024C10.3169 9.04251 9.74008 9.74531 9.00006 10.2398C8.26004 10.7342 7.39001 10.9982 6.5 10.9982C5.30693 10.9968 4.1631 10.5223 3.31948 9.67868C2.47585 8.83506 2.00132 7.69123 2 6.49817Z"
        fill="#161616" />
</svg>
