<svg fill="none" height="16" viewBox="0 0 16 16" width="16" xmlns="http://www.w3.org/2000/svg">
    <rect style="mix-blend-mode:multiply" fill="white" fill-opacity="0.01" height="16" width="16" />
    <path
        d="M13.5 8.37971C13.5 8.25471 13.5 8.12971 13.5 7.99971C13.5 7.86971 13.5 7.74471 13.5 7.61471L14.46 6.77471C14.637 6.61874 14.7531 6.40523 14.7879 6.17192C14.8226 5.9386 14.7738 5.70051 14.65 5.49971L13.47 3.49972C13.3823 3.34785 13.2562 3.22171 13.1044 3.13395C12.9526 3.04619 12.7804 2.99989 12.605 2.99971C12.4963 2.99888 12.3882 3.01577 12.285 3.04972L11.07 3.45972C10.8602 3.32032 10.6414 3.19504 10.415 3.08472L10.16 1.82472C10.1143 1.59452 9.98905 1.38774 9.80623 1.24057C9.62341 1.0934 9.39466 1.01522 9.16 1.01971H6.82C6.58535 1.01522 6.3566 1.0934 6.17378 1.24057C5.99096 1.38774 5.86573 1.59452 5.82 1.82472L5.565 3.08472C5.33697 3.19502 5.11649 3.32029 4.905 3.45972L3.715 3.02972C3.61065 3.00253 3.50259 2.9924 3.395 2.99971C3.21964 2.99989 3.04741 3.04619 2.89559 3.13395C2.74376 3.22171 2.61769 3.34785 2.53 3.49972L1.35 5.49971C1.2333 5.70021 1.18993 5.93504 1.22733 6.164C1.26473 6.39295 1.38057 6.60178 1.555 6.75471L2.5 7.61971C2.5 7.74471 2.5 7.86971 2.5 7.99971C2.5 8.12971 2.5 8.25471 2.5 8.38472L1.555 9.22472C1.37564 9.37871 1.25663 9.59128 1.2191 9.82469C1.18158 10.0581 1.22795 10.2973 1.35 10.4997L2.53 12.4997C2.61769 12.6516 2.74376 12.7777 2.89559 12.8655C3.04741 12.9532 3.21964 12.9995 3.395 12.9997C3.50368 13.0005 3.61176 12.9837 3.715 12.9497L4.93 12.5397C5.13977 12.6791 5.35859 12.8044 5.585 12.9147L5.84 14.1747C5.88573 14.4049 6.01096 14.6117 6.19378 14.7589C6.3766 14.906 6.60535 14.9842 6.84 14.9797H9.2C9.43466 14.9842 9.66341 14.906 9.84623 14.7589C10.029 14.6117 10.1543 14.4049 10.2 14.1747L10.455 12.9147C10.683 12.8044 10.9035 12.6791 11.115 12.5397L12.325 12.9497C12.4282 12.9837 12.5363 13.0005 12.645 12.9997C12.8204 12.9995 12.9926 12.9532 13.1444 12.8655C13.2962 12.7777 13.4223 12.6516 13.51 12.4997L14.65 10.4997C14.7667 10.2992 14.8101 10.0644 14.7727 9.83543C14.7353 9.60648 14.6194 9.39765 14.445 9.24471L13.5 8.37971ZM12.605 11.9997L10.89 11.4197C10.4885 11.7598 10.0297 12.0256 9.535 12.2047L9.18 13.9997H6.82L6.465 12.2247C5.97422 12.0405 5.51786 11.7751 5.115 11.4397L3.395 11.9997L2.215 9.99971L3.575 8.79972C3.48255 8.28214 3.48255 7.75229 3.575 7.23471L2.215 5.99971L3.395 3.99972L5.11 4.57972C5.51147 4.23966 5.97031 3.97384 6.465 3.79472L6.82 1.99971H9.18L9.535 3.77472C10.0258 3.95893 10.4821 4.22429 10.885 4.55972L12.605 3.99972L13.785 5.99971L12.425 7.19971C12.5175 7.71729 12.5175 8.24714 12.425 8.76472L13.785 9.99971L12.605 11.9997Z"
        fill="#161616" />
    <path
        d="M8 10.9997C7.40666 10.9997 6.82664 10.8238 6.33329 10.4941C5.83995 10.1645 5.45543 9.69594 5.22837 9.14777C5.0013 8.59959 4.94189 7.99639 5.05765 7.41444C5.1734 6.8325 5.45913 6.29795 5.87868 5.8784C6.29824 5.45884 6.83279 5.17312 7.41473 5.05736C7.99668 4.9416 8.59988 5.00101 9.14805 5.22808C9.69623 5.45514 10.1648 5.83966 10.4944 6.333C10.8241 6.82635 11 7.40637 11 7.99972C11.004 8.3948 10.9292 8.78671 10.7798 9.15249C10.6305 9.51828 10.4096 9.8506 10.1303 10.13C9.85089 10.4094 9.51857 10.6302 9.15278 10.7795C8.787 10.9289 8.39508 11.0037 8 10.9997ZM8 5.99972C7.73568 5.99356 7.47285 6.04108 7.22741 6.13941C6.98198 6.23774 6.75904 6.38483 6.57208 6.57179C6.38512 6.75875 6.23803 6.98169 6.1397 7.22712C6.04137 7.47256 5.99385 7.73539 6 7.99972C5.99385 8.26404 6.04137 8.52687 6.1397 8.77231C6.23803 9.01774 6.38512 9.24068 6.57208 9.42764C6.75904 9.6146 6.98198 9.76169 7.22741 9.86002C7.47285 9.95835 7.73568 10.0059 8 9.99971C8.26433 10.0059 8.52716 9.95835 8.7726 9.86002C9.01803 9.76169 9.24097 9.6146 9.42793 9.42764C9.61489 9.24068 9.76198 9.01774 9.86031 8.77231C9.95864 8.52687 10.0062 8.26404 10 7.99972C10.0062 7.73539 9.95864 7.47256 9.86031 7.22712C9.76198 6.98169 9.61489 6.75875 9.42793 6.57179C9.24097 6.38483 9.01803 6.23774 8.7726 6.13941C8.52716 6.04108 8.26433 5.99356 8 5.99972Z"
        fill="#161616" />
</svg>
